<?xml version="1.0" standalone="no"?>
<!DOCTYPE svg PUBLIC "-//W3C//DTD SVG 20010904//EN"
 "http://www.w3.org/TR/2001/REC-SVG-20010904/DTD/svg10.dtd">
<svg version="1.0" xmlns="http://www.w3.org/2000/svg"
 width="760.000000pt" height="700.000000pt" viewBox="160 180 760 700"
 preserveAspectRatio="xMidYMid meet">

<g transform="translate(0.000000,1080.000000) scale(0.100000,-0.100000)"
fill="#000000" stroke="none">
<path d="M3600 8426 l0 -143 178 -7 c179 -7 367 -31 522 -67 47 -11 94 -21
105 -23 57 -11 277 -81 375 -119 142 -55 174 -69 194 -83 11 -8 25 -14 31 -14
21 0 276 -141 393 -217 367 -239 691 -555 937 -913 61 -89 164 -259 192 -315
10 -22 24 -49 30 -60 42 -80 70 -144 159 -365 14 -35 44 -132 82 -265 60 -207
102 -482 109 -703 l6 -163 146 3 146 3 0 1795 0 1795 -1802 3 -1803 2 0 -144z"/>
<path d="M3592 6548 l3 -1573 1576 -3 1577 -2 -5 132 c-14 459 -182 1029 -418
1421 -30 49 -55 91 -55 93 0 6 -108 161 -177 255 -137 184 -418 466 -584 586
-35 26 -66 49 -69 53 -4 6 -78 57 -164 112 -75 49 -217 127 -326 180 -363 175
-706 270 -1090 303 -91 8 -189 15 -218 15 l-52 0 2 -1572z"/>
<path d="M2503 4081 c-212 -58 -405 -226 -515 -451 -76 -154 -118 -353 -118
-557 l0 -93 88 0 89 0 6 159 c7 166 29 265 88 396 26 59 118 186 168 234 88
83 218 145 316 151 72 5 93 0 124 -26 l31 -26 0 -234 0 -234 -250 0 c-137 0
-250 -2 -250 -5 0 -2 8 -26 19 -52 10 -26 21 -65 25 -86 l7 -37 312 2 312 3 2
336 c1 314 0 339 -19 380 -25 58 -62 95 -123 127 -68 35 -207 41 -312 13z"/>
<path d="M3422 4079 c-50 -25 -96 -68 -118 -112 -23 -43 -30 -139 -14 -190 19
-60 101 -142 156 -156 23 -6 131 -11 239 -11 149 0 204 -3 231 -15 73 -30 79
-134 10 -176 -29 -18 -53 -19 -338 -19 -170 0 -308 -3 -308 -7 0 -4 12 -44 27
-90 l27 -83 281 0 c306 0 349 6 426 57 22 14 53 49 71 77 29 45 33 61 36 138
5 107 -14 155 -88 221 -71 64 -95 69 -345 74 -181 4 -223 8 -237 20 -24 21
-23 68 2 93 19 19 33 20 350 20 l330 0 0 90 0 90 -347 0 c-335 0 -350 -1 -391
-21z"/>
<path d="M4480 3608 c0 -271 -3 -523 -7 -560 l-6 -68 90 0 90 0 7 233 c4 127
6 338 5 467 l-1 235 168 3 c195 3 231 -5 288 -68 53 -59 55 -68 53 -198 -2
-118 -3 -121 -33 -159 -16 -21 -54 -50 -84 -65 -49 -26 -63 -28 -166 -28
l-112 0 9 -37 c5 -21 17 -60 28 -88 l19 -50 109 1 c86 1 120 5 165 23 105 41
204 146 234 248 20 70 15 310 -7 358 -46 96 -104 156 -202 208 l-62 32 -292 3
-293 3 0 -493z"/>
<path d="M5975 4093 c-11 -3 -47 -18 -81 -33 -74 -34 -155 -119 -189 -200 -22
-49 -24 -70 -25 -200 0 -140 1 -147 30 -207 57 -121 157 -198 290 -223 76 -14
610 -13 610 1 0 6 -12 47 -27 90 l-26 79 -252 0 c-330 0 -377 13 -429 125 -22
45 -26 68 -26 140 0 96 15 136 71 193 49 49 88 62 196 62 80 0 101 -4 143 -25
54 -27 95 -79 106 -133 l7 -32 -202 0 -202 0 3 -87 3 -88 290 0 290 0 -1 110
c-1 146 -27 224 -102 307 -85 94 -177 128 -341 127 -64 -1 -125 -3 -136 -6z"/>
<path d="M7127 4076 c-117 -48 -185 -115 -229 -224 -20 -50 -23 -75 -23 -192
0 -130 1 -137 31 -200 38 -80 83 -133 149 -175 87 -56 149 -65 438 -65 285 0
269 -4 243 67 -8 21 -18 54 -23 73 l-9 35 -244 5 c-264 6 -285 10 -343 63 -46
44 -67 107 -67 202 0 93 20 152 67 197 58 54 82 58 375 58 l269 0 -3 88 -3 87
-285 2 c-281 3 -286 2 -343 -21z"/>
<path d="M8074 4086 c-3 -7 -4 -134 -2 -282 3 -228 6 -277 21 -319 37 -103
142 -208 242 -242 40 -13 103 -17 324 -20 l274 -4 -6 23 c-10 46 -38 141 -43
149 -3 5 -101 9 -218 9 -255 0 -293 8 -354 74 -22 24 -45 61 -51 82 -6 23 -11
143 -11 292 l0 252 -85 0 c-64 0 -87 -4 -91 -14z"/>
<path d="M8480 3750 l0 -90 85 0 85 0 0 90 0 90 -85 0 -85 0 0 -90z"/>
<path d="M1870 2770 l0 -90 90 0 90 0 0 90 0 90 -90 0 -90 0 0 -90z"/>
<path d="M2260 2839 c-6 -11 -24 -51 -40 -90 l-28 -69 24 0 c17 0 25 7 30 25
5 20 12 25 40 25 28 0 35 -5 40 -25 4 -18 13 -25 31 -25 16 0 23 5 20 13 -61
157 -91 195 -117 146z m40 -65 c0 -8 -6 -14 -14 -14 -12 0 -14 10 -7 38 3 10
21 -11 21 -24z"/>
<path d="M2537 2853 c-4 -3 -7 -44 -7 -90 0 -76 2 -83 20 -83 16 0 20 7 20 35
0 28 4 35 19 35 11 0 28 -15 41 -35 15 -24 29 -35 46 -35 29 0 30 4 3 42 -21
29 -21 32 -5 58 18 31 13 56 -15 70 -20 11 -112 14 -122 3z m107 -38 c7 -19
-19 -33 -50 -27 -15 3 -24 11 -24 23 0 15 7 19 34 19 21 0 36 -6 40 -15z"/>
<path d="M2883 2845 c-28 -20 -39 -76 -23 -114 24 -59 117 -66 145 -10 14 27
14 29 -3 29 -10 0 -27 -9 -37 -20 -22 -24 -38 -25 -59 -4 -22 21 -20 67 2 87
24 22 37 21 61 -4 20 -21 41 -19 41 5 0 41 -84 61 -127 31z"/>
<path d="M3180 2770 c0 -83 1 -90 20 -90 17 0 20 7 20 40 0 39 1 40 35 40 36
0 41 -9 36 -62 -2 -13 5 -18 24 -18 l26 0 -3 88 c-3 79 -5 87 -23 87 -15 0
-21 -8 -23 -32 -3 -30 -6 -33 -38 -33 -32 0 -34 2 -34 35 0 28 -4 35 -20 35
-19 0 -20 -7 -20 -90z"/>
<path d="M3517 2854 c-4 -4 -7 -45 -7 -91 0 -77 2 -83 20 -83 20 0 21 5 18 87
-3 79 -12 106 -31 87z"/>
<path d="M3700 2845 c0 -10 10 -15 30 -15 l30 0 0 -75 c0 -68 2 -75 20 -75 18
0 20 7 20 76 l0 76 30 -4 c24 -4 30 -1 30 14 0 16 -9 18 -80 18 -64 0 -80 -3
-80 -15z"/>
<path d="M4020 2770 l0 -90 70 0 c56 0 70 3 70 15 0 11 -12 15 -50 15 -43 0
-50 3 -50 20 0 17 7 20 45 20 38 0 45 3 45 20 0 17 -7 20 -45 20 -38 0 -45 3
-45 20 0 17 7 20 50 20 38 0 50 4 50 15 0 12 -14 15 -70 15 l-70 0 0 -90z"/>
<path d="M4345 2835 c-29 -30 -33 -71 -10 -114 14 -28 39 -41 82 -41 28 0 79
43 69 58 -10 17 -46 15 -46 -2 0 -22 -31 -28 -56 -11 -28 18 -32 65 -8 89 21
21 33 20 60 -5 23 -22 44 -19 44 6 0 21 -41 45 -77 45 -21 0 -41 -9 -58 -25z"/>
<path d="M4640 2846 c0 -9 12 -16 28 -18 26 -3 27 -5 30 -75 3 -65 5 -73 22
-73 18 0 20 7 20 75 0 73 1 75 25 75 16 0 25 6 25 15 0 12 -15 15 -75 15 -58
0 -75 -3 -75 -14z"/>
<path d="M4950 2791 c0 -91 20 -116 83 -108 55 8 67 27 67 109 0 61 -2 68 -20
68 -18 0 -20 -7 -20 -65 0 -52 -3 -66 -19 -74 -32 -18 -50 7 -53 74 -2 48 -7
60 -20 63 -16 3 -18 -5 -18 -67z"/>
<path d="M5280 2770 c0 -73 3 -90 15 -90 10 0 15 11 15 35 0 30 3 35 23 35 14
0 30 -12 45 -35 15 -25 30 -35 47 -35 14 0 25 1 25 3 0 2 -11 18 -24 36 -23
30 -24 35 -10 56 17 26 14 63 -7 76 -8 5 -40 9 -71 9 l-58 0 0 -90z m103 45
c7 -16 -3 -24 -38 -31 -26 -5 -40 9 -31 31 7 20 62 19 69 0z"/>
<path d="M5600 2770 l0 -90 75 0 c60 0 75 3 75 15 0 12 -13 15 -55 15 -48 0
-55 2 -55 20 0 17 7 20 50 20 43 0 50 3 50 20 0 17 -7 20 -51 20 -43 0 -50 3
-47 18 2 13 15 18 56 20 37 2 52 7 52 18 0 11 -16 14 -75 14 l-75 0 0 -90z"/>
<path d="M6127 2828 c-14 -30 -57 -140 -57 -145 0 -2 9 -3 20 -3 13 0 24 10
30 25 7 19 17 25 38 25 21 0 32 -7 40 -25 7 -15 20 -25 32 -25 22 0 25 10 11
38 -20 42 -41 89 -50 115 -14 38 -45 35 -64 -5z m38 -66 c-22 -5 -27 1 -19 23
7 17 8 17 21 -1 12 -17 12 -19 -2 -22z"/>
<path d="M6400 2770 c0 -83 2 -90 19 -90 17 0 20 8 23 50 l3 50 35 -47 c20
-28 45 -49 58 -51 21 -3 22 -1 22 87 0 84 -1 91 -20 91 -17 0 -20 -7 -20 -52
-1 -59 4 -61 -59 21 -13 17 -32 31 -42 31 -17 0 -19 -8 -19 -90z"/>
<path d="M6730 2770 l0 -90 45 0 c84 0 124 42 111 115 -9 46 -39 65 -103 65
l-53 0 0 -90z m104 38 c9 -12 16 -30 16 -40 0 -24 -35 -58 -60 -58 -18 0 -20
7 -20 60 0 57 1 60 24 60 14 0 32 -10 40 -22z"/>
<path d="M7280 2770 l0 -90 54 0 c45 0 58 4 81 27 24 24 26 34 22 72 -7 61
-33 81 -103 81 l-54 0 0 -90z m102 43 c38 -35 9 -103 -44 -103 -15 0 -18 9
-18 60 0 55 2 60 22 60 12 0 30 -7 40 -17z"/>
<path d="M7600 2770 l0 -90 75 0 c60 0 75 3 75 15 0 12 -13 15 -55 15 -48 0
-55 2 -55 20 0 17 7 20 50 20 43 0 50 3 50 20 0 17 -7 20 -51 20 -43 0 -50 3
-47 18 2 13 15 18 56 20 37 2 52 7 52 18 0 11 -16 14 -75 14 l-75 0 0 -90z"/>
<path d="M7936 2847 c-12 -9 -17 -23 -14 -42 2 -25 10 -32 48 -46 48 -18 60
-33 35 -43 -18 -7 -55 9 -55 24 0 6 -9 10 -20 10 -42 0 -12 -54 36 -66 56 -14
102 22 90 71 -4 17 -17 25 -51 34 -46 11 -58 27 -29 38 8 3 25 -4 38 -16 20
-19 25 -20 35 -7 31 37 -69 75 -113 43z"/>
<path d="M8237 2854 c-4 -4 -7 -45 -7 -91 0 -77 2 -83 20 -83 20 0 21 5 18 87
-3 79 -12 106 -31 87z"/>
<path d="M8466 2839 c-22 -17 -26 -29 -26 -68 0 -57 20 -81 77 -87 56 -7 88
13 88 56 0 33 -2 35 -36 38 -26 2 -38 -1 -43 -13 -6 -17 16 -31 34 -20 5 3 10
0 10 -8 0 -20 -37 -28 -66 -15 -19 9 -24 19 -24 49 0 57 47 73 91 33 15 -13
22 -15 31 -6 9 9 6 18 -12 37 -30 32 -86 34 -124 4z"/>
<path d="M8780 2771 c0 -84 1 -91 20 -91 17 0 20 7 20 51 l0 51 40 -51 c60
-75 70 -70 70 39 0 72 -3 90 -15 90 -10 0 -15 -15 -17 -56 l-3 -55 -36 53
c-21 32 -44 54 -57 56 -21 3 -22 0 -22 -87z"/>
</g>
</svg>
